<!DOCTYPE svg PUBLIC "-//W3C//DTD SVG 1.1//EN" "http://www.w3.org/Graphics/SVG/1.1/DTD/svg11.dtd">
<!-- Uploaded to: SVG Repo, www.svgrepo.com, Transformed by: SVG Repo Mixer Tools -->
<svg fill="#0454c4" height="800px" width="800px" version="1.1" id="Layer_1" xmlns="http://www.w3.org/2000/svg" xmlns:xlink="http://www.w3.org/1999/xlink" viewBox="0 0 512.068 512.068" xml:space="preserve">
<g id="SVGRepo_bgCarrier" stroke-width="0"/>
<g id="SVGRepo_tracerCarrier" stroke-linecap="round" stroke-linejoin="round"/>
<g id="SVGRepo_iconCarrier"> <g transform="translate(0 -1)"> <g> <path d="M505.786,7.283c-8.331-8.331-21.839-8.331-30.17,0l-48.915,48.915v-33.83c0-16.756-18.431-26.971-32.64-18.091 L228.582,107.701H106.701c-11.782,0-21.333,9.551-21.333,21.333v256c0,3.616,0.907,7.018,2.495,10.002l-81.58,81.58 c-8.331,8.331-8.331,21.839,0,30.17c8.331,8.331,21.839,8.331,30.17,0l100.418-100.418h91.712l165.478,103.424 c14.209,8.881,32.64-1.335,32.64-18.091V116.537l79.085-79.085C514.117,29.121,514.117,15.614,505.786,7.283z M128.034,150.367 h85.333c0,11.782,9.551,21.333,21.333,21.333c11.782,0,21.333-9.551,21.333-21.333v-9.509l128-80v38.006l-256,256V150.367z M384.034,453.21l-128-80v-9.509c0-11.782-9.551-21.333-21.333-21.333c-11.782,0-21.333,9.551-21.333,21.333h-33.83 l204.497-204.497V453.21z"/> </g> </g> </g>
</svg>